<svg width="213" height="110" viewBox="0 0 213 110" fill="none" xmlns="http://www.w3.org/2000/svg">
<path d="M202.262 6.55855V1.90981H200.584V0.550781H205.479V1.89902H203.812V6.54776H202.262V6.55855Z" fill="#161616"/>
<path d="M211.461 6.55855V2.50304L209.944 6.55855H209.266L207.76 2.50304V6.55855H206.211V0.550781H208.352L209.6 3.94835L210.859 0.550781H213V6.55855H211.45H211.461Z" fill="#161616"/>
<path d="M139.96 13.9354L145.684 12.0695V0L95.2793 16.276V76.9469L139.96 62.5153V13.9354ZM115.29 59.3442L103.294 24.84L112.611 21.8307L120.455 46.9728L128.341 16.7506L137.658 13.7413L125.608 56.0114L115.28 59.3442H115.29Z" fill="#161616"/>
<path d="M27.047 27.0397L20.5488 29.143V37.7717L22.679 37.0814L27.0578 35.6685C29.2095 34.9782 31.0277 32.7131 31.0277 30.0706C31.0277 27.428 29.2095 26.3387 27.0578 27.0397H27.047Z" fill="#161616"/>
<path d="M0 16.276V76.9469L44.6806 62.5153V13.9354L50.4042 12.0695V0L0 16.276ZM33.0506 55.1377C31.2431 55.7202 29.597 55.0191 28.7901 53.3365L25.4549 46.3256C25.0138 45.398 24.1101 45.0205 23.1311 45.3441C21.7002 45.8079 20.5382 47.5768 20.5382 49.3025V59.1824L12.3186 61.8358V23.4594L28.2845 18.3037C35.3637 16.0171 39.3766 20.3638 39.3766 27.4934C39.3766 33.9541 36.2028 38.5274 33.3088 40.8248C33.2119 40.9003 33.1151 40.9758 33.0183 41.0513L39.5165 53.0452L33.0506 55.1377Z" fill="#161616"/>
<path d="M170.072 27.0397L163.574 29.143V37.7717L165.704 37.0814L170.083 35.6685C172.235 34.9782 174.053 32.7131 174.053 30.0706C174.053 27.428 172.235 26.3387 170.083 27.0397H170.072Z" fill="#161616"/>
<path d="M143.014 16.2868V76.9684L193.418 60.6817V0L143.014 16.2868ZM176.075 55.1377C174.268 55.7202 172.621 55.0191 171.815 53.3365L168.479 46.3256C168.038 45.398 167.135 45.0205 166.156 45.3441C164.725 45.8079 163.563 47.5768 163.563 49.3025V59.1824L155.343 61.8358V23.4594L171.309 18.3037C178.388 16.0171 182.401 20.3638 182.401 27.4934C182.401 33.9541 179.227 38.5274 176.333 40.8248C176.236 40.9003 176.14 40.9758 176.043 41.0513L182.541 53.0452L176.075 55.1377Z" fill="#161616"/>
<path d="M79.5406 41.6584C81.963 36.4219 80.929 30.7831 77.2312 29.0639C73.5334 27.3446 68.5721 30.196 66.1497 35.4325C63.7274 40.669 64.7613 46.3078 68.4591 48.027C72.1569 49.7463 77.1183 46.895 79.5406 41.6584Z" fill="#161616"/>
<path d="M47.6484 16.276V76.9469L92.3291 62.5153V13.9354L98.0527 12.0695V0L47.6484 16.276ZM72.8452 58.8157C63.539 61.825 55.9971 55.1809 55.9971 43.9743C55.9971 32.7677 63.539 21.2483 72.8452 18.2498C82.1514 15.2405 89.6932 21.8847 89.6932 33.0913C89.6932 44.2978 82.1514 55.8172 72.8452 58.8157Z" fill="#161616"/>
<path d="M4.66763 90.7H11.8116C13.1036 90.7 14.098 90.985 14.7946 91.555C15.4913 92.125 15.8396 92.9927 15.8396 94.158C15.8396 94.7153 15.7066 95.2347 15.4406 95.716C15.1873 96.1847 14.801 96.5773 14.2816 96.894C13.927 97.122 13.5153 97.2867 13.0466 97.388C13.4773 97.4513 13.832 97.5527 14.1106 97.692C14.516 97.8693 14.8263 98.1607 15.0416 98.566C15.257 98.9587 15.39 99.5097 15.4406 100.219L15.4786 100.637C15.4913 100.776 15.504 100.909 15.5166 101.036C15.5926 101.923 15.656 102.569 15.7066 102.974C15.77 103.367 15.8713 103.709 16.0106 104H13.3316C13.2303 103.772 13.1606 103.493 13.1226 103.164C13.0846 102.835 13.0466 102.372 13.0086 101.777C12.996 101.536 12.977 101.302 12.9516 101.074C12.939 100.846 12.9136 100.586 12.8756 100.295C12.8376 99.9023 12.7553 99.573 12.6286 99.307C12.502 99.041 12.2993 98.8383 12.0206 98.699C11.742 98.547 11.3746 98.471 10.9186 98.471H7.23263V104H4.66763V90.7ZM7.23263 96.362H11.0516C11.7483 96.362 12.293 96.2163 12.6856 95.925C13.0783 95.621 13.2746 95.1713 13.2746 94.576C13.2746 93.9933 13.0973 93.5627 12.7426 93.284C12.4006 93.0053 11.9066 92.866 11.2606 92.866H7.23263V96.362ZM21.952 90.7H25.296L30.312 104H27.652L26.455 100.751H20.774L19.634 104H17.012L21.952 90.7ZM25.676 98.623L23.548 92.828L21.515 98.623H25.676ZM31.8503 90.7H36.8853C38.1899 90.7 39.3489 90.9787 40.3623 91.536C41.3756 92.0933 42.1609 92.8787 42.7183 93.892C43.2883 94.8927 43.5733 96.0517 43.5733 97.369C43.5733 98.6737 43.2883 99.8263 42.7183 100.827C42.1609 101.828 41.3756 102.607 40.3623 103.164C39.3489 103.721 38.1899 104 36.8853 104H31.8503V90.7ZM36.7523 101.815C37.5376 101.815 38.2469 101.644 38.8803 101.302C39.5263 100.947 40.0266 100.434 40.3813 99.763C40.7486 99.0917 40.9323 98.281 40.9323 97.331C40.9323 96.4063 40.7486 95.6083 40.3813 94.937C40.0139 94.2657 39.5136 93.759 38.8803 93.417C38.2469 93.0623 37.5376 92.885 36.7523 92.885H34.4153V101.815H36.7523ZM45.6178 90.7H48.1828V104H45.6178V90.7ZM56.7919 104.19C55.5126 104.19 54.3789 103.911 53.3909 103.354C52.4029 102.797 51.6302 102.005 51.0729 100.979C50.5282 99.9403 50.2559 98.7307 50.2559 97.35C50.2559 95.9693 50.5282 94.766 51.0729 93.74C51.6302 92.714 52.4029 91.9223 53.3909 91.365C54.3789 90.8077 55.5126 90.529 56.7919 90.529C58.0586 90.529 59.1859 90.8077 60.1739 91.365C61.1619 91.9223 61.9282 92.714 62.4729 93.74C63.0302 94.766 63.3089 95.9693 63.3089 97.35C63.3089 98.7307 63.0302 99.9403 62.4729 100.979C61.9282 102.005 61.1619 102.797 60.1739 103.354C59.1859 103.911 58.0586 104.19 56.7919 104.19ZM56.7919 102.005C57.6026 102.005 58.2929 101.821 58.8629 101.454C59.4329 101.087 59.8636 100.561 60.1549 99.877C60.4462 99.1803 60.5919 98.3443 60.5919 97.369C60.5919 96.4063 60.4462 95.5767 60.1549 94.88C59.8636 94.1707 59.4329 93.6323 58.8629 93.265C58.2929 92.885 57.6026 92.695 56.7919 92.695C55.9812 92.695 55.2909 92.885 54.7209 93.265C54.1509 93.6323 53.7139 94.1707 53.4099 94.88C53.1186 95.5767 52.9729 96.4063 52.9729 97.369C52.9729 98.3317 53.1186 99.1613 53.4099 99.858C53.7139 100.555 54.1509 101.087 54.7209 101.454C55.2909 101.821 55.9812 102.005 56.7919 102.005ZM70.7965 90.7H77.9405C79.2325 90.7 80.2269 90.985 80.9235 91.555C81.6202 92.125 81.9685 92.9927 81.9685 94.158C81.9685 94.7153 81.8355 95.2347 81.5695 95.716C81.3162 96.1847 80.9299 96.5773 80.4105 96.894C80.0559 97.122 79.6442 97.2867 79.1755 97.388C79.6062 97.4513 79.9609 97.5527 80.2395 97.692C80.6449 97.8693 80.9552 98.1607 81.1705 98.566C81.3859 98.9587 81.5189 99.5097 81.5695 100.219L81.6075 100.637C81.6202 100.776 81.6329 100.909 81.6455 101.036C81.7215 101.923 81.7849 102.569 81.8355 102.974C81.8989 103.367 82.0002 103.709 82.1395 104H79.4605C79.3592 103.772 79.2895 103.493 79.2515 103.164C79.2135 102.835 79.1755 102.372 79.1375 101.777C79.1249 101.536 79.1059 101.302 79.0805 101.074C79.0679 100.846 79.0425 100.586 79.0045 100.295C78.9665 99.9023 78.8842 99.573 78.7575 99.307C78.6309 99.041 78.4282 98.8383 78.1495 98.699C77.8709 98.547 77.5035 98.471 77.0475 98.471H73.3615V104H70.7965V90.7ZM73.3615 96.362H77.1805C77.8772 96.362 78.4219 96.2163 78.8145 95.925C79.2072 95.621 79.4035 95.1713 79.4035 94.576C79.4035 93.9933 79.2262 93.5627 78.8715 93.284C78.5295 93.0053 78.0355 92.866 77.3895 92.866H73.3615V96.362ZM84.4899 90.7H94.0089V92.885H87.0549V96.058H93.4389V98.224H87.0549V101.815H94.0849V104H84.4899V90.7ZM96.3092 90.7H98.8742V104H96.3092V90.7ZM101.764 90.7H105.963L109.06 97.369C109.516 98.3317 109.852 99.041 110.067 99.497C110.283 99.953 110.612 100.643 111.055 101.568C111.093 101.631 111.125 101.695 111.15 101.758V90.7H113.639V104H109.535L106.609 97.692C106.065 96.5773 105.615 95.6273 105.26 94.842C104.969 94.2213 104.633 93.5057 104.253 92.695C104.253 94.1137 104.253 95.7477 104.253 97.597V104H101.764V90.7ZM115.185 90.7H117.826L121.74 101.853L125.464 90.7H128.124L123.374 104H119.992L115.185 90.7ZM129.652 90.7H139.171V92.885H132.217V96.058H138.601V98.224H132.217V101.815H139.247V104H129.652V90.7ZM141.471 90.7H145.67L148.767 97.369C149.223 98.3317 149.559 99.041 149.774 99.497C149.99 99.953 150.319 100.643 150.762 101.568C150.8 101.631 150.832 101.695 150.857 101.758V90.7H153.346V104H149.242L146.316 97.692C145.772 96.5773 145.322 95.6273 144.967 94.842C144.676 94.2213 144.34 93.5057 143.96 92.695C143.96 94.1137 143.96 95.7477 143.96 97.597V104H141.471V90.7ZM159.243 92.885H155.006V90.7H165.969V92.885H161.789V103.962H159.243V92.885ZM167.633 90.7H177.152V92.885H170.198V96.058H176.582V98.224H170.198V101.815H177.228V104H167.633V90.7ZM179.453 90.7H184.488C185.792 90.7 186.951 90.9787 187.965 91.536C188.978 92.0933 189.763 92.8787 190.321 93.892C190.891 94.8927 191.176 96.0517 191.176 97.369C191.176 98.6737 190.891 99.8263 190.321 100.827C189.763 101.828 188.978 102.607 187.965 103.164C186.951 103.721 185.792 104 184.488 104H179.453V90.7ZM184.355 101.815C185.14 101.815 185.849 101.644 186.483 101.302C187.129 100.947 187.629 100.434 187.984 99.763C188.351 99.0917 188.535 98.281 188.535 97.331C188.535 96.4063 188.351 95.6083 187.984 94.937C187.616 94.2657 187.116 93.759 186.483 93.417C185.849 93.0623 185.14 92.885 184.355 92.885H182.018V101.815H184.355Z" fill="#161616"/>
</svg>
