<svg width="189" height="97" viewBox="0 0 189 97" fill="none" xmlns="http://www.w3.org/2000/svg">
<path d="M1.47021 82.4463H6.67275C7.62734 82.4463 8.38147 82.6664 8.94468 83.1162C9.50789 83.566 9.78473 84.2455 9.78473 85.1738C9.78473 85.6331 9.69881 86.0447 9.51744 86.4083C9.33607 86.772 9.08787 87.0687 8.77286 87.2984C8.45784 87.5472 8.076 87.7099 7.63689 87.8056C8.05691 87.8821 8.40057 88.0065 8.6774 88.2075C8.95423 88.3989 9.16424 88.6669 9.30743 89.0018C9.45062 89.3368 9.53653 89.7579 9.56517 90.2555L9.58426 90.5809C9.59381 90.6958 9.60335 90.801 9.6129 90.8872C9.65108 91.4805 9.69881 91.959 9.737 92.3227C9.77518 92.6864 9.842 92.983 9.91837 93.2318H8.6774C8.60103 93.0022 8.5533 92.7246 8.51512 92.3992C8.47693 92.0739 8.4483 91.6336 8.41011 91.0881C8.40057 90.9254 8.39102 90.7915 8.39102 90.7053C8.39102 90.6096 8.38147 90.4948 8.37193 90.3321C8.34329 89.9014 8.25738 89.5378 8.12373 89.2507C7.99009 88.9636 7.78008 88.7434 7.48416 88.5808C7.18823 88.4181 6.79685 88.3415 6.30046 88.3415H2.66346V93.2223H1.47021V82.4463ZM2.66346 87.3271H6.30046C6.98777 87.3271 7.53188 87.1644 7.95191 86.839C8.36238 86.5136 8.57239 86.0064 8.57239 85.3269C8.57239 84.6474 8.38147 84.1976 7.99009 83.9105C7.59871 83.6234 7.06413 83.4799 6.37683 83.4799H2.66346V87.3271Z" fill="#FFEF57"/>
<path d="M16.6771 82.4463H18.2426L22.4046 93.2223H21.1446L19.9036 89.9589H15.0065L13.7942 93.2223H12.5532L16.6866 82.4463H16.6771ZM19.5218 88.9253L17.4312 83.432L15.3884 88.9253H19.5218Z" fill="#FFEF57"/>
<path d="M25.4497 82.4463H29.1822C30.1654 82.4463 31.0436 82.6664 31.8168 83.0971C32.5901 83.5277 33.1915 84.1498 33.621 84.9632C34.0506 85.7767 34.2702 86.7337 34.2702 87.8439C34.2702 88.954 34.0506 89.911 33.621 90.7245C33.1915 91.5379 32.5901 92.16 31.8168 92.5907C31.0436 93.0213 30.1654 93.2414 29.1822 93.2414H25.4497V82.4654V82.4463ZM31.1582 91.6623C31.75 91.3178 32.2082 90.8202 32.5328 90.1694C32.8574 89.5186 33.0196 88.7434 33.0196 87.8343C33.0196 86.9251 32.8574 86.1404 32.5328 85.4896C32.2082 84.8388 31.75 84.3412 31.1582 84.0062C30.5663 83.6713 29.879 83.499 29.0963 83.499H26.6525V92.1791H29.0963C29.8886 92.1791 30.5759 92.0069 31.1582 91.6623Z" fill="#FFEF57"/>
<path d="M37.7925 82.4463H38.9857V93.2223H37.7925V82.4463Z" fill="#FFEF57"/>
<path d="M44.8947 92.6957C44.1406 92.2364 43.5583 91.5952 43.1478 90.7626C42.7374 89.93 42.5273 88.9538 42.5273 87.8341C42.5273 86.7144 42.7374 85.7382 43.1478 84.9056C43.5583 84.073 44.1502 83.4222 44.8947 82.9724C45.6489 82.5227 46.508 82.293 47.4626 82.293C48.4172 82.293 49.2954 82.5227 50.04 82.9724C50.7846 83.4222 51.3669 84.073 51.7869 84.9056C52.2069 85.7382 52.4169 86.724 52.4169 87.8341C52.4169 88.9442 52.2069 89.93 51.7869 90.7626C51.3669 91.5952 50.7846 92.2364 50.04 92.6957C49.2954 93.1551 48.4363 93.3848 47.4626 93.3848C46.4889 93.3848 45.6393 93.1551 44.8947 92.6957ZM49.4577 91.777C50.0018 91.4038 50.4218 90.887 50.7082 90.2075C50.9946 89.528 51.1378 88.7433 51.1378 87.8532C51.1378 86.9632 50.9946 86.1497 50.7082 85.4703C50.4218 84.8003 50.0018 84.274 49.4577 83.9008C48.9136 83.5275 48.2549 83.3361 47.4817 83.3361C46.7085 83.3361 46.0403 83.5275 45.4866 83.9008C44.9329 84.274 44.5129 84.8003 44.2265 85.4703C43.9401 86.1402 43.797 86.9345 43.797 87.8532C43.797 88.772 43.9401 89.528 44.2265 90.2075C44.5129 90.887 44.9329 91.4038 45.4866 91.777C46.0403 92.1502 46.6989 92.3321 47.4721 92.3321C48.2454 92.3321 48.9136 92.1502 49.4577 91.777Z" fill="#FFEF57"/>
<path d="M61.7241 82.4463H66.9267C67.8812 82.4463 68.6354 82.6664 69.1986 83.1162C69.7618 83.566 70.0386 84.2455 70.0386 85.1738C70.0386 85.6331 69.9527 86.0447 69.7713 86.4083C69.59 86.772 69.3418 87.0687 69.0268 87.2984C68.7117 87.5472 68.3299 87.7099 67.8908 87.8056C68.3108 87.8821 68.6545 88.0065 68.9313 88.2075C69.2081 88.3989 69.4181 88.6669 69.5613 89.0018C69.7045 89.3368 69.7904 89.7579 69.8191 90.2555L69.8382 90.5809C69.8477 90.6958 69.8573 90.801 69.8668 90.8872C69.905 91.4805 69.9527 91.959 69.9909 92.3227C70.0291 92.6864 70.0959 92.983 70.1723 93.2318H68.9313C68.8549 93.0022 68.8072 92.7246 68.769 92.3992C68.7308 92.0739 68.7022 91.6336 68.664 91.0881C68.6545 90.9254 68.6449 90.7915 68.6449 90.7053C68.6449 90.6096 68.6354 90.4948 68.6258 90.3321C68.5972 89.9014 68.5113 89.5378 68.3776 89.2507C68.244 88.9636 68.034 88.7434 67.7381 88.5808C67.4421 88.4181 67.0508 88.3415 66.5544 88.3415H62.9174V93.2223H61.7241V82.4463ZM62.9174 87.3271H66.5544C67.2417 87.3271 67.7858 87.1644 68.2058 86.839C68.6163 86.5136 68.8263 86.0064 68.8263 85.3269C68.8263 84.6474 68.6354 84.1976 68.244 83.9105C67.8526 83.6234 67.318 83.4799 66.6307 83.4799H62.9174V87.3271Z" fill="#FFEF57"/>
<path d="M73.9143 82.4461H81.0356V83.4892H75.1076V87.1355H80.606V88.1786H75.1076V92.1694H81.0929V93.2125H73.9048V82.4365L73.9143 82.4461Z" fill="#FFEF57"/>
<path d="M84.7393 82.4463H85.9325V93.2223H84.7393V82.4463Z" fill="#FFEF57"/>
<path d="M90.1138 82.4461H92.0516L95.0013 87.7097C95.4595 88.5519 95.8222 89.2026 96.0704 89.6524C96.3186 90.1022 96.6814 90.7338 97.1396 91.5473C97.2541 91.7291 97.3591 91.9205 97.4641 92.1024V82.4461H98.6574V93.2221H96.7577L93.9512 88.1978C93.3021 87.0302 92.8248 86.1593 92.5098 85.5947C92.233 85.1066 91.8416 84.3984 91.3261 83.4701V93.2125H90.1329V82.4365L90.1138 82.4461Z" fill="#FFEF57"/>
<path d="M101.693 82.4463H102.962L106.514 92.2844L110.017 82.4463H111.277L107.315 93.2223H105.674L101.693 82.4463Z" fill="#FFEF57"/>
<path d="M114.322 82.4461H121.443V83.4892H115.515V87.1355H121.014V88.1786H115.515V92.1694H121.501V93.2125H114.312V82.4365L114.322 82.4461Z" fill="#FFEF57"/>
<path d="M125.147 82.4461H127.085L130.035 87.7097C130.493 88.5519 130.856 89.2026 131.104 89.6524C131.352 90.1022 131.715 90.7338 132.173 91.5473C132.288 91.7291 132.393 91.9205 132.498 92.1024V82.4461H133.691V93.2221H131.791L128.985 88.1978C128.336 87.0302 127.859 86.1593 127.543 85.5947C127.267 85.1066 126.875 84.3984 126.36 83.4701V93.2125H125.167V82.4365L125.147 82.4461Z" fill="#FFEF57"/>
<path d="M140.469 83.4987H136.86V82.4556H145.232V83.4987H141.652V93.2124H140.469V83.4987Z" fill="#FFEF57"/>
<path d="M148.411 82.4461H155.532V83.4892H149.604V87.1355H155.103V88.1786H149.604V92.1694H155.589V93.2125H148.401V82.4365L148.411 82.4461Z" fill="#FFEF57"/>
<path d="M159.246 82.4463H162.978C163.961 82.4463 164.84 82.6664 165.613 83.0971C166.386 83.5277 166.987 84.1498 167.417 84.9632C167.846 85.7767 168.066 86.7337 168.066 87.8439C168.066 88.954 167.846 89.911 167.417 90.7245C166.987 91.5379 166.386 92.16 165.613 92.5907C164.84 93.0213 163.961 93.2414 162.978 93.2414H159.246V82.4654V82.4463ZM164.954 91.6623C165.546 91.3178 166.004 90.8202 166.329 90.1694C166.653 89.5186 166.816 88.7434 166.816 87.8343C166.816 86.9251 166.653 86.1404 166.329 85.4896C166.004 84.8388 165.546 84.3412 164.954 84.0062C164.362 83.6713 163.675 83.499 162.892 83.499H160.448V92.1791H162.892C163.684 92.1791 164.372 92.0069 164.954 91.6623Z" fill="#FFEF57"/>
<path d="M179.464 5.81886V1.69412H177.975V0.488281H182.318V1.68455H180.838V5.80929H179.464V5.81886Z" fill="#FFEF57"/>
<path d="M187.626 5.81886V2.22048L186.28 5.81886H185.678L184.342 2.22048V5.81886H182.967V0.488281H184.867L185.974 3.50288L187.091 0.488281H188.991V5.81886H187.616H187.626Z" fill="#FFEF57"/>
<path d="M124.183 12.3646L129.261 10.709V0L84.5386 14.4414V68.2735L124.183 55.4686V12.3646ZM102.294 52.655L91.6503 22.0401L99.9171 19.37L106.876 41.678L113.873 14.8624L122.14 12.1924L111.449 49.6978L102.284 52.655H102.294Z" fill="#FFEF57"/>
<path d="M23.9987 23.9924L18.2329 25.8586V33.5147L20.123 32.9022L24.0082 31.6485C25.9174 31.036 27.5307 29.0263 27.5307 26.6816C27.5307 24.3369 25.9174 23.3703 24.0082 23.9924H23.9987Z" fill="#FFEF57"/>
<path d="M0 14.4414V68.2735L39.6443 55.4686V12.3646L44.7227 10.709V0L0 14.4414ZM29.3251 48.9226C27.7214 49.4394 26.2609 48.8174 25.5449 47.3244L22.5857 41.1038C22.1943 40.2808 21.3924 39.9458 20.5238 40.2329C19.2542 40.6444 18.2232 42.2139 18.2232 43.7452V52.5114L10.9301 54.8657V20.8151L25.0963 16.2406C31.3775 14.2117 34.9381 18.0685 34.9381 24.3943C34.9381 30.1268 32.1221 34.1846 29.5542 36.223C29.4683 36.29 29.3824 36.357 29.2965 36.424L35.0622 47.066L29.3251 48.9226Z" fill="#FFEF57"/>
<path d="M150.902 23.9924L145.136 25.8586V33.5147L147.026 32.9022L150.912 31.6485C152.821 31.036 154.434 29.0263 154.434 26.6816C154.434 24.3369 152.821 23.3703 150.912 23.9924H150.902Z" fill="#FFEF57"/>
<path d="M126.894 14.4509V68.2926L171.617 53.8417V0L126.894 14.4509ZM156.229 48.9226C154.625 49.4394 153.164 48.8174 152.449 47.3244L149.489 41.1038C149.098 40.2808 148.296 39.9458 147.427 40.2329C146.158 40.6444 145.127 42.2139 145.127 43.7452V52.5114L137.834 54.8657V20.8151L152 16.2406C158.281 14.2117 161.842 18.0685 161.842 24.3943C161.842 30.1268 159.026 34.1846 156.458 36.223C156.372 36.29 156.286 36.357 156.2 36.424L161.966 47.066L156.229 48.9226Z" fill="#FFEF57"/>
<path d="M70.5769 36.9624C72.7262 32.3161 71.8088 27.313 68.5278 25.7875C65.2468 24.2621 60.8447 26.792 58.6954 31.4383C56.5461 36.0845 57.4635 41.0877 60.7445 42.6131C64.0254 44.1386 68.4276 41.6087 70.5769 36.9624Z" fill="#FFEF57"/>
<path d="M42.2788 14.4414V68.2735L81.9231 55.4686V12.3646L87.0015 10.709V0L42.2788 14.4414ZM64.6354 52.186C56.3782 54.8561 49.6865 48.9609 49.6865 39.0175C49.6865 29.0741 56.3782 18.8532 64.6354 16.1927C72.8926 13.5226 79.5843 19.4178 79.5843 29.3612C79.5843 39.3046 72.8926 49.5255 64.6354 52.186Z" fill="#FFEF57"/>
</svg>
