<svg width="149" height="40" viewBox="0 0 149 40" fill="none" xmlns="http://www.w3.org/2000/svg">
<g clip-path="url(#clip0_12520_1389)">
<path d="M100.54 0H88.9481C88.1567 0 87.4837 0.576079 87.3599 1.35675L82.6759 31.076C82.5843 31.6628 83.0366 32.1905 83.6288 32.1905H89.5781C90.1326 32.1905 90.6064 31.7867 90.6925 31.2375L92.0224 22.8117C92.1462 22.031 92.8192 21.4549 93.6106 21.4549H97.2771C104.911 21.4549 109.316 17.7616 110.468 10.4394C110.985 7.23599 110.489 4.7217 108.987 2.96116C107.34 1.02294 104.416 0 100.54 0ZM101.88 10.854C101.245 15.0158 98.0685 15.0158 94.9943 15.0158H93.2445L94.472 7.24676C94.5474 6.77836 94.9512 6.43378 95.425 6.43378H96.2272C98.3215 6.43378 100.297 6.43378 101.315 7.62363C101.923 8.33431 102.106 9.39494 101.88 10.854Z" fill="black"/>
<path d="M17.881 0H6.28946C5.49802 0 4.82503 0.576079 4.7012 1.35675L0.0118068 31.076C-0.0797198 31.6628 0.372529 32.1905 0.964761 32.1905H6.49943C7.29087 32.1905 7.96386 31.6144 8.08769 30.8337L9.35291 22.8171C9.47674 22.0364 10.1497 21.4603 10.9412 21.4603H14.6076C22.242 21.4603 26.6461 17.7669 27.7982 10.4448C28.3151 7.24137 27.8198 4.72708 26.3176 2.96654C24.6702 1.02833 21.7467 0.00538392 17.8703 0.00538392L17.881 0ZM19.2163 10.854C18.5809 15.0158 15.4044 15.0158 12.3302 15.0158H10.5804L11.808 7.24676C11.8834 6.77836 12.2871 6.43378 12.7609 6.43378H13.5631C15.6575 6.43378 17.6334 6.43378 18.6509 7.62363C19.2593 8.33431 19.4424 9.39494 19.2163 10.854Z" fill="black"/>
<path d="M52.5205 10.7176H46.9697C46.4959 10.7176 46.0867 11.0621 46.0167 11.5305L45.7744 13.0811L45.3868 12.5212C44.1862 10.7768 41.505 10.1953 38.8292 10.1953C32.6969 10.1953 27.4584 14.8416 26.4408 21.3562C25.9078 24.6081 26.6615 27.7146 28.5082 29.8843C30.2042 31.8764 32.6161 32.7055 35.4965 32.7055C40.439 32.7055 43.1794 29.529 43.1794 29.529L42.9317 31.0742C42.8402 31.661 43.2925 32.194 43.8847 32.194H48.881C49.6724 32.194 50.3454 31.6179 50.4692 30.8373L53.4681 11.8374C53.5596 11.2506 53.1073 10.7229 52.5151 10.7229L52.5205 10.7176ZM44.7838 21.5231C44.2454 24.6942 41.7311 26.8209 38.5223 26.8209C36.9125 26.8209 35.6258 26.304 34.7966 25.3241C33.9783 24.3496 33.666 22.966 33.9244 21.4262C34.4251 18.282 36.9825 16.0853 40.1429 16.0853C41.7204 16.0853 42.9963 16.6076 43.8416 17.5982C44.6923 18.5942 45.0261 19.9887 44.7838 21.5231Z" fill="black"/>
<path d="M135.185 10.7176H129.634C129.16 10.7176 128.751 11.0621 128.681 11.5305L128.439 13.0811L128.051 12.5212C126.85 10.7768 124.169 10.1953 121.493 10.1953C115.361 10.1953 110.122 14.8416 109.105 21.3562C108.572 24.6081 109.326 27.7146 111.172 29.8843C112.868 31.8764 115.28 32.7055 118.161 32.7055C123.103 32.7055 125.843 29.529 125.843 29.529L125.596 31.0742C125.504 31.661 125.957 32.194 126.549 32.194H131.545C132.336 32.194 133.009 31.6179 133.133 30.8373L136.132 11.8374C136.224 11.2506 135.771 10.7229 135.179 10.7229L135.185 10.7176ZM127.448 21.5231C126.909 24.6942 124.395 26.8209 121.186 26.8209C119.577 26.8209 118.29 26.304 117.461 25.3241C116.642 24.3496 116.33 22.966 116.589 21.4262C117.089 18.282 119.647 16.0853 122.807 16.0853C124.384 16.0853 125.66 16.6076 126.506 17.5982C127.356 18.5942 127.69 19.9887 127.448 21.5231Z" fill="black"/>
<path d="M82.0768 10.7202H76.4991C75.9661 10.7202 75.4654 10.984 75.1693 11.4255L67.4757 22.7587L64.213 11.867C64.0084 11.1832 63.3839 10.7202 62.6678 10.7202H57.187C56.5248 10.7202 56.0564 11.3717 56.2717 11.9962L62.4148 30.027L56.6378 38.1782C56.1856 38.8189 56.6378 39.7019 57.4239 39.7019H62.9962C63.5239 39.7019 64.0192 39.4434 64.3207 39.0073L82.8737 12.2331C83.3151 11.5924 82.8575 10.7148 82.0822 10.7148L82.0768 10.7202Z" fill="black"/>
<path d="M141.728 0.816878L136.969 31.0799C136.877 31.6667 137.33 32.1944 137.922 32.1944H142.708C143.5 32.1944 144.173 31.6183 144.296 30.8376L148.986 1.11838C149.077 0.53153 148.625 0.00390625 148.033 0.00390625H142.681C142.207 0.00390625 141.798 0.348477 141.728 0.822262V0.816878Z" fill="black"/>
</g>
<defs>
<clipPath id="clip0_12520_1389">
<rect width="149" height="39.7064" fill="white"/>
</clipPath>
</defs>
</svg>
