<svg width="26" height="25" viewBox="0 0 26 25" fill="none" xmlns="http://www.w3.org/2000/svg">
<g clip-path="url(#clip0_4023_643)">
<path d="M25 21.4444C25 22.1222 24.7471 22.7722 24.2971 23.2515C23.847 23.7308 23.2365 24 22.6 24H3.4C2.76348 24 2.15303 23.7308 1.70294 23.2515C1.25286 22.7722 1 22.1222 1 21.4444V3.55556C1 2.87778 1.25286 2.22776 1.70294 1.7485C2.15303 1.26925 2.76348 1 3.4 1H9.4L11.8 4.83333H22.6C23.2365 4.83333 23.847 5.10258 24.2971 5.58184C24.7471 6.0611 25 6.71111 25 7.38889V21.4444Z" stroke="#FFF057" stroke-width="2" stroke-linecap="round" stroke-linejoin="round"/>
<path d="M10 18V11.0667L17 10V16.9333" stroke="#FFF057" stroke-width="2" stroke-linecap="round" stroke-linejoin="round"/>
<circle cx="16" cy="17" r="2" fill="#FFF057"/>
<circle cx="9" cy="18.5" r="2" fill="#FFF057"/>
</g>
<defs>
<clipPath id="clip0_4023_643">
<rect width="26" height="25" fill="white"/>
</clipPath>
</defs>
</svg>
