<svg width="20" height="20" viewBox="0 0 20 20" fill="none" xmlns="http://www.w3.org/2000/svg">
<path d="M14.2755 0.818359H5.72016C2.91131 0.818359 0.629883 3.09979 0.629883 5.90865V14.464C0.629883 17.2729 2.91131 19.5543 5.72016 19.5543H14.2755C17.0783 19.5543 19.3658 17.2729 19.3658 14.464V5.90865C19.3658 3.10592 17.0844 0.818359 14.2755 0.818359ZM18.0166 14.4579C18.0166 16.5247 16.3362 18.2051 14.2755 18.2051H5.72016C3.65338 18.2051 1.97298 16.5247 1.97298 14.4579V5.90252C1.97298 3.83574 3.65338 2.16146 5.72016 2.16146H14.2755C16.3423 2.16146 18.0166 3.84187 18.0166 5.90252V14.4579Z" fill="#FFF057"/>
<path d="M10.001 5.54102C7.43745 5.54102 5.3584 7.62619 5.3584 10.1836C5.3584 12.741 7.44358 14.8262 10.001 14.8262C12.5584 14.8262 14.6436 12.741 14.6436 10.1836C14.6436 7.62619 12.5584 5.54102 10.001 5.54102ZM10.001 13.4831C8.17953 13.4831 6.7015 12.0051 6.7015 10.1836C6.7015 8.36214 8.17953 6.88412 10.001 6.88412C11.8225 6.88412 13.3005 8.36214 13.3005 10.1836C13.3005 12.0051 11.8225 13.4831 10.001 13.4831Z" fill="#FFF057"/>
<path d="M15.4345 6.49785C16.3524 6.49785 17.0965 5.75374 17.0965 4.83584C17.0965 3.91794 16.3524 3.17383 15.4345 3.17383C14.5166 3.17383 13.7725 3.91794 13.7725 4.83584C13.7725 5.75374 14.5166 6.49785 15.4345 6.49785Z" fill="#FFF057"/>
</svg>
