<svg width="26" height="26" viewBox="0 0 26 26" fill="none" xmlns="http://www.w3.org/2000/svg">
<path d="M12.9988 25.1793C19.7254 25.1793 25.1783 19.7263 25.1783 12.9998C25.1783 6.27325 19.7254 0.820312 12.9988 0.820312C6.27228 0.820312 0.819336 6.27325 0.819336 12.9998C0.819336 19.7263 6.27228 25.1793 12.9988 25.1793Z" stroke="#FFF057" stroke-width="1.1" stroke-miterlimit="10" stroke-linecap="round" stroke-linejoin="round"/>
<path d="M12.9981 0.820312V25.1793M12.9981 0.820312C9.27446 0.820312 6.25586 6.27324 6.25586 12.9998C6.25586 19.7264 9.27446 25.1793 12.9981 25.1793M12.9981 0.820312C16.7217 0.820312 19.7403 6.27324 19.7403 12.9998C19.7403 19.7264 16.7217 25.1793 12.9981 25.1793" stroke="#FFF057" stroke-width="1.1" stroke-miterlimit="10" stroke-linecap="round" stroke-linejoin="round"/>
<path d="M25.1783 13H0.819336" stroke="#FFF057" stroke-width="1.1" stroke-miterlimit="10" stroke-linecap="round" stroke-linejoin="round"/>
<path d="M23.4377 6.91016H2.55859" stroke="#FFF057" stroke-width="1.1" stroke-miterlimit="10" stroke-linecap="round" stroke-linejoin="round"/>
<path d="M23.4377 19.0898H2.55859" stroke="#FFF057" stroke-width="1.1" stroke-miterlimit="10" stroke-linecap="round" stroke-linejoin="round"/>
</svg>
