<svg width="143" height="52" viewBox="0 0 143 52" fill="none" xmlns="http://www.w3.org/2000/svg">
<path d="M135.791 4.40252V1.28154H134.664V0.369141H137.951V1.2743H136.831V4.39528H135.791V4.40252Z" fill="#FFF057"/>
<path d="M141.966 4.40252V1.67981L140.948 4.40252H140.493L139.482 1.67981V4.40252H138.441V0.369141H139.879L140.717 2.65014L141.562 0.369141H142.999V4.40252H141.959H141.966Z" fill="#FFF057"/>
<path d="M93.9637 9.35571L97.8063 8.10297V0L63.9668 10.9271V51.6592L93.9637 41.9704V9.35571ZM77.4015 39.8414L69.3479 16.6766L75.603 14.6563L80.8685 31.5357L86.1629 11.2457L92.418 9.22537L84.3283 37.6039L77.3942 39.8414H77.4015Z" fill="#FFF057"/>
<path d="M18.1595 18.1551L13.7969 19.5671V25.3601L15.227 24.8967L18.1668 23.9481C19.6113 23.4846 20.832 21.964 20.832 20.1899C20.832 18.4158 19.6113 17.6844 18.1668 18.1551H18.1595Z" fill="#FFF057"/>
<path d="M0 10.9271V51.6592L29.9969 41.9704V9.35571L33.8395 8.10297V0L0 10.9271ZM22.1889 37.0173C20.9754 37.4084 19.8703 36.9377 19.3286 35.8081L17.0895 31.1012C16.7933 30.4785 16.1866 30.225 15.5293 30.4423C14.5687 30.7537 13.7886 31.9412 13.7886 33.0998V39.7328L8.27027 41.5142V15.7498L18.9891 12.2884C23.7418 10.7533 26.436 13.6715 26.436 18.458C26.436 22.7955 24.3052 25.8658 22.3622 27.4082C22.2972 27.4589 22.2322 27.5096 22.1672 27.5603L26.5299 35.6125L22.1889 37.0173Z" fill="#FFF057"/>
<path d="M114.179 18.1551L109.816 19.5671V25.3601L111.247 24.8967L114.186 23.9481C115.631 23.4846 116.852 21.964 116.852 20.1899C116.852 18.4158 115.631 17.6844 114.186 18.1551H114.179Z" fill="#FFF057"/>
<path d="M96.0137 10.9343V51.6737L129.853 40.7393V0L96.0137 10.9343ZM118.21 37.0173C116.996 37.4084 115.891 36.9377 115.349 35.8081L113.11 31.1012C112.814 30.4785 112.208 30.225 111.55 30.4423C110.59 30.7536 109.809 31.9412 109.809 33.0998V39.7328L104.291 41.5142V15.7497L115.01 12.2884C119.763 10.7533 122.457 13.6715 122.457 18.458C122.457 22.7955 120.326 25.8658 118.383 27.4082C118.318 27.4589 118.253 27.5096 118.188 27.5603L122.551 35.6125L118.21 37.0173Z" fill="#FFF057"/>
<path d="M53.4016 27.9666C55.0278 24.451 54.3337 20.6654 51.8511 19.5111C49.3686 18.3569 46.0377 20.2712 44.4114 23.7868C42.7852 27.3024 43.4793 31.088 45.9619 32.2423C48.4444 33.3965 51.7753 31.4822 53.4016 27.9666Z" fill="#FFF057"/>
<path d="M31.9902 10.9271V51.6592L61.9871 41.9704V9.35571L65.8297 8.10297V0L31.9902 10.9271ZM48.9064 39.4866C42.6585 41.5069 37.5952 37.0463 37.5952 29.5226C37.5952 21.999 42.6585 14.2653 48.9064 12.2522C55.1542 10.2319 60.2175 14.6925 60.2175 22.2162C60.2175 29.7399 55.1542 37.4735 48.9064 39.4866Z" fill="#FFF057"/>
</svg>
