<svg width="143" height="50" viewBox="0 0 143 50" fill="none" xmlns="http://www.w3.org/2000/svg">
<g clip-path="url(#clip0_89_7)">
<path d="M135.791 4.2332V1.23226H134.664V0.35495H137.951V1.2253H136.831V4.22624H135.791V4.2332Z" fill="#FFF057"/>
<path d="M141.966 4.2332V1.61521L140.948 4.2332H140.493L139.482 1.61521V4.2332H138.441V0.35495H139.879L140.717 2.54822L141.562 0.35495H142.999V4.2332H141.959H141.966Z" fill="#FFF057"/>
<path d="M93.9637 8.99587L97.8063 7.79132V0L63.9668 10.5068V49.6723L93.9637 40.3562V8.99587ZM77.4015 38.309L69.3479 16.0352L75.603 14.0926L80.8685 30.3228L86.1629 10.8132L92.418 8.87055L84.3283 36.1576L77.3942 38.309H77.4015Z" fill="#FFF057"/>
<path d="M18.1595 17.4568L13.7969 18.8145V24.3847L15.227 23.9392L18.1668 23.027C19.6113 22.5814 20.832 21.1192 20.832 19.4134C20.832 17.7075 19.6113 17.0042 18.1668 17.4568H18.1595Z" fill="#FFF057"/>
<path d="M0 10.5068V49.6723L29.9969 40.3562V8.99587L33.8395 7.79132V0L0 10.5068ZM22.1889 35.5936C20.9754 35.9696 19.8703 35.517 19.3286 34.4309L17.0895 29.905C16.7933 29.3062 16.1866 29.0625 15.5293 29.2714C14.5687 29.5709 13.7886 30.7127 13.7886 31.8267V38.2046L8.27027 39.9175V15.144L18.9891 11.8158C23.7418 10.3397 26.436 13.1457 26.436 17.7481C26.436 21.9187 24.3052 24.871 22.3622 26.354C22.2972 26.4028 22.2322 26.4515 22.1672 26.5003L26.5299 34.2428L22.1889 35.5936Z" fill="#FFF057"/>
<path d="M114.179 17.4568L109.816 18.8145V24.3847L111.247 23.9392L114.186 23.027C115.631 22.5814 116.852 21.1192 116.852 19.4134C116.852 17.7075 115.631 17.0042 114.186 17.4568H114.179Z" fill="#FFF057"/>
<path d="M96.0137 10.5138V49.6863L129.853 39.1724V0L96.0137 10.5138ZM118.21 35.5936C116.996 35.9696 115.891 35.517 115.349 34.4309L113.11 29.905C112.814 29.3063 112.208 29.0625 111.55 29.2714C110.59 29.5708 109.809 30.7127 109.809 31.8267V38.2046L104.291 39.9175V15.1439L115.01 11.8158C119.763 10.3397 122.457 13.1457 122.457 17.7481C122.457 21.9188 120.326 24.871 118.383 26.354C118.318 26.4028 118.253 26.4515 118.188 26.5003L122.551 34.2428L118.21 35.5936Z" fill="#FFF057"/>
<path d="M53.4016 26.891C55.0278 23.5106 54.3337 19.8706 51.8511 18.7607C49.3686 17.6509 46.0377 19.4915 44.4114 22.8719C42.7852 26.2523 43.4793 29.8923 45.9619 31.0022C48.4444 32.112 51.7753 30.2713 53.4016 26.891Z" fill="#FFF057"/>
<path d="M31.9902 10.5068V49.6723L61.9871 40.3562V8.99587L65.8297 7.79132V0L31.9902 10.5068ZM48.9064 37.9679C42.6585 39.9105 37.5952 35.6214 37.5952 28.3871C37.5952 21.1529 42.6585 13.7166 48.9064 11.781C55.1542 9.83837 60.2175 14.1274 60.2175 21.3617C60.2175 28.5961 55.1542 36.0322 48.9064 37.9679Z" fill="#FFF057"/>
</g>
<defs>
<clipPath id="clip0_89_7">
<rect width="143" height="50" fill="white"/>
</clipPath>
</defs>
</svg>
