<svg width="43" height="45" viewBox="0 0 43 45" fill="none" xmlns="http://www.w3.org/2000/svg">
<path d="M35.9943 3.51349V0.786973H35V0H37.8955V0.786973H36.9074V3.5073H35.9943V3.51349Z" fill="#FFF057"/>
<path d="M41.4405 3.51349V1.14638L40.54 3.51349H40.1335L39.2392 1.14638V3.51349H38.3262V0H39.5957L40.3336 1.98912L41.0778 0H42.3473V3.51349H41.4343H41.4405Z" fill="#FFF057"/>
<path d="M15.9964 15.8129L12.1504 17.0398V22.0839L13.4074 21.6811L15.9964 20.8569C17.2659 20.448 18.3416 19.1343 18.3416 17.5851C18.3416 16.0359 17.2659 15.4039 15.9964 15.8129Z" fill="#FFF057"/>
<path d="M0 9.52423V45L29.8178 35.482V0L0 9.51804V9.52423ZM19.5554 32.2411C18.486 32.5819 17.5104 32.173 17.0351 31.1877L15.0652 27.0855C14.8088 26.5464 14.271 26.3233 13.6894 26.5092C12.8389 26.7819 12.151 27.8167 12.151 28.8268V34.602L7.28558 36.1574V13.7132L16.7287 10.6954C20.9124 9.35693 23.2889 11.8975 23.2889 16.0679C23.2889 19.8416 21.4127 22.5186 19.6992 23.8633C19.6429 23.9066 19.5804 23.9562 19.5241 23.9934L23.3702 31.008L19.5429 32.2287L19.5554 32.2411Z" fill="#FFF057"/>
</svg>
