<svg width="500" height="500" viewBox="0 0 500 500" fill="none" xmlns="http://www.w3.org/2000/svg">
<rect width="500" height="500" fill="#161616"/>
<path d="M144.39 200.379V298.255C144.39 298.377 144.312 298.49 144.19 298.524L54.076 327.554C53.9282 327.598 53.7718 327.52 53.7196 327.363C53.7196 327.337 53.7109 327.311 53.7109 327.285V204.96C53.7109 204.838 53.7892 204.725 53.9108 204.69L155.62 171.923C155.767 171.88 155.924 171.958 155.976 172.114C155.976 172.14 155.985 172.166 155.985 172.192V196.199C155.985 196.32 155.906 196.433 155.793 196.468L144.581 200.11C144.468 200.145 144.39 200.258 144.39 200.379ZM120.706 254.702C121.131 254.111 122.07 253.693 122.453 253.311C130.64 245.289 134.256 235.511 133.291 223.977C132.37 212.939 124.243 205.125 112.761 208.662C103.809 211.426 92.6492 215.007 79.2728 219.422C79.0816 219.483 78.986 219.614 78.986 219.814V296.343C78.986 296.586 79.1077 296.673 79.3424 296.604L94.9264 291.589C95.1437 291.519 95.2566 291.363 95.2566 291.128C95.2566 285.383 95.2566 279.646 95.2653 273.919C95.2653 271.12 95.5087 269.138 95.9694 267.974C97.3252 264.523 103.079 260.508 105.591 265.722C107.781 270.277 109.98 274.823 112.179 279.36C114.5 284.14 117.82 284.192 122.644 282.636C126.207 281.489 129.719 280.368 133.195 279.264C133.465 279.186 133.526 279.021 133.395 278.769L120.662 255.293C120.549 255.084 120.558 254.893 120.697 254.702H120.706Z" fill="#FFF057"/>
<path d="M337.665 200.344V298.272C337.665 298.385 337.595 298.481 337.491 298.507L247.151 327.615C247.02 327.658 246.881 327.589 246.838 327.45C246.838 327.424 246.829 327.397 246.829 327.363V204.977C246.829 204.864 246.899 204.768 247.003 204.742L348.938 171.888C349.068 171.844 349.207 171.914 349.251 172.053C349.251 172.079 349.259 172.105 349.259 172.14V196.224C349.259 196.337 349.19 196.433 349.085 196.459L337.839 200.109C337.734 200.144 337.665 200.24 337.665 200.344ZM314.328 205.898C314.258 205.924 314.197 205.976 314.18 206.054L298.257 266.887C298.222 267 298.101 267.069 297.988 267.043C297.918 267.026 297.857 266.974 297.84 266.904L282.091 216.528C282.056 216.415 281.934 216.345 281.821 216.38L263.708 222.186C263.595 222.221 263.526 222.342 263.56 222.455C263.56 222.455 263.56 222.455 263.56 222.464L287.636 291.519C287.679 291.632 287.801 291.692 287.914 291.658L308.27 285.078C308.339 285.052 308.392 285 308.409 284.93L332.563 200.37C332.589 200.257 332.519 200.135 332.406 200.101C332.363 200.092 332.328 200.092 332.285 200.101L314.328 205.889V205.898Z" fill="#FFF057"/>
<path d="M241.023 200.413V298.193C241.023 298.35 240.919 298.489 240.771 298.541L150.813 327.519C150.622 327.579 150.422 327.475 150.361 327.284C150.352 327.249 150.344 327.214 150.344 327.18V205.028C150.344 204.872 150.448 204.733 150.596 204.681L252.148 171.966C252.339 171.905 252.539 172.009 252.6 172.2C252.609 172.235 252.617 172.27 252.617 172.305V196.146C252.617 196.302 252.513 196.441 252.365 196.493L241.275 200.074C241.127 200.126 241.023 200.265 241.023 200.422V200.413ZM182.833 290.014C198.512 297.289 219.563 285.217 229.854 263.045C240.145 240.872 235.782 216.997 220.102 209.713C204.423 202.438 183.372 214.511 173.081 236.683C162.79 258.855 167.153 282.731 182.833 290.014Z" fill="#FFF057"/>
<path d="M343.783 327.319V204.968C343.783 204.846 343.862 204.742 343.975 204.707L445.692 171.931C445.84 171.887 445.996 171.966 446.04 172.113C446.04 172.139 446.048 172.166 446.048 172.2V294.552C446.048 294.673 445.97 294.778 445.857 294.812L344.14 327.588C343.992 327.632 343.836 327.553 343.792 327.406C343.792 327.38 343.783 327.354 343.783 327.319ZM410.882 254.753C420.382 246.409 424.502 235.927 423.259 223.289C422.234 212.894 414.263 205.385 403.468 208.479C398.462 209.913 387.059 213.581 369.25 219.491C369.024 219.561 368.911 219.717 368.911 219.961V296.351C368.911 296.611 369.032 296.707 369.285 296.62L384.999 291.588C385.225 291.518 385.338 291.362 385.338 291.127C385.338 284.843 385.338 278.55 385.347 272.266C385.347 265.887 392.343 258.169 396.559 267.451C398.401 271.502 400.322 275.517 402.33 279.489C404.459 283.713 407.397 284.278 411.899 282.888C415.741 281.705 419.539 280.489 423.294 279.237C423.459 279.185 423.555 279.002 423.503 278.829C423.503 278.811 423.485 278.794 423.476 278.768L410.752 255.379C410.622 255.135 410.665 254.927 410.865 254.753H410.882Z" fill="#FFF057"/>
<path d="M103.253 246.018C101.141 246.626 98.2121 247.678 95.6567 248.434C95.396 248.512 95.2656 248.417 95.2656 248.139V231.103C95.2656 230.886 95.3699 230.738 95.5785 230.669C102.958 228.148 107.642 226.636 109.633 226.114C116.082 224.437 117.803 231.903 116.273 236.431C114.213 242.567 109.546 244.21 103.262 246.009L103.253 246.018Z" fill="#FFF057"/>
<path d="M385.972 248.338C385.703 248.416 385.425 248.268 385.346 248.007C385.329 247.964 385.329 247.912 385.329 247.868V231.155C385.329 230.92 385.442 230.772 385.668 230.694C391.7 228.564 396.263 227.087 399.349 226.261C403.173 225.236 406.111 227.4 406.754 231.172C407.736 236.978 403.807 242.584 398.436 244.383C394.768 245.609 390.622 246.938 385.972 248.355V248.338Z" fill="#FFF057"/>
<path d="M215.227 256.232C220.162 245.551 218.005 234.048 210.41 230.539C202.815 227.029 192.657 232.843 187.722 243.523C182.787 254.203 184.944 265.706 192.539 269.216C200.134 272.725 210.292 266.912 215.227 256.232Z" fill="#FFF057"/>
</svg>
