<svg width="36" height="36" viewBox="0 0 36 36" fill="none" xmlns="http://www.w3.org/2000/svg">
<path d="M18 35C27.3888 35 35 27.3888 35 18C35 8.61116 27.3888 1 18 1C8.61116 1 1 8.61116 1 18C1 27.3888 8.61116 35 18 35Z" stroke="#FFF057" stroke-width="1.5" stroke-miterlimit="10"/>
<path fill-rule="evenodd" clip-rule="evenodd" d="M15.1402 14.5885V11.4649C15.1402 8.71371 17.9119 7.96758 19.9471 8.00107C21.9824 8.03455 23 8.34012 23 8.34012L22.509 11.4303C22.509 11.4303 19.1404 10.2081 19.1404 12.6871C19.1404 15.1662 19.1404 14.5885 19.1404 14.5885H22.5436L22.2625 17.6107H19.1393V28H15.1402V17.6107H13V14.5885H15.1402Z" fill="#FFF15C"/>
</svg>
