<svg width="36" height="36" viewBox="0 0 36 36" fill="none" xmlns="http://www.w3.org/2000/svg">
<path d="M18 35C27.3888 35 35 27.3888 35 18C35 8.61116 27.3888 1 18 1C8.61116 1 1 8.61116 1 18C1 27.3888 8.61116 35 18 35Z" stroke="#FFF057" stroke-width="1.5" stroke-miterlimit="10"/>
<path d="M12.2578 19.9551L14.318 25.517" stroke="#FFF057" stroke-linecap="round" stroke-linejoin="round"/>
<path d="M14.5547 20.9844L14.3477 25.5754L17.3024 23.0692L14.5547 20.9844Z" stroke="#FFF057" stroke-linecap="round" stroke-linejoin="round"/>
<path d="M26.1804 10.0385L7.39008 17.18C6.86026 17.3821 6.87258 18.1386 7.41226 18.3185L12.2571 19.9548L23.2898 13.3283L14.5513 20.9849L21.3553 26.1476C22.0625 26.6848 23.0902 26.3226 23.3045 25.4625L26.9813 10.7531C27.0996 10.28 26.6363 9.86596 26.1779 10.0409L26.1804 10.0385Z" stroke="#FFF057" stroke-linecap="round" stroke-linejoin="round"/>
</svg>
