<svg width="36" height="36" viewBox="0 0 36 36" fill="none" xmlns="http://www.w3.org/2000/svg">
<path fill-rule="evenodd" clip-rule="evenodd" d="M18 1C27.3896 1 35 8.6104 35 18C35 27.3896 27.3896 35 18 35C14.5365 35 11.3172 33.9639 8.6321 32.1847L2.23947 34.2731L4.3143 28.0839C2.23133 25.266 1 21.7754 1 18C1 8.6104 8.6104 1 18 1ZM10.292 9.1881C8.6538 10.2377 8.37715 12.6841 8.32833 13.213C8.27952 13.7419 8.23341 14.862 9.09588 16.7497C9.96107 18.6374 12.0739 21.2004 14.683 23.6332C17.2921 26.0661 21.2926 27.113 22.5049 27.452C23.7146 27.791 26.2722 27.1889 27.4737 25.8925C28.6752 24.596 28.3985 23.2481 28.3741 22.7952C28.3497 22.3449 27.9456 22.2744 27.9456 22.2744C27.9456 22.2744 24.6313 20.6688 23.9478 20.3569C23.2671 20.045 22.9199 20.5522 22.9199 20.5522C22.9199 20.5522 21.9137 21.8242 21.5909 22.2392C21.2682 22.6541 21.0838 23.0257 20.2403 22.7463C19.3968 22.4697 17.7044 21.5584 16.3239 20.3189C14.9434 19.0795 13.8856 17.4413 13.5846 16.945C13.2835 16.4486 13.6307 16.1367 13.6307 16.1367C13.6307 16.1367 14.5067 15.1278 14.9244 14.5881C15.3421 14.0483 15.0817 13.4462 14.9813 13.2021C14.881 12.958 13.5384 9.80105 13.3405 9.35354C13.1452 8.90874 12.7167 8.8328 12.7167 8.8328H11.1219C10.8371 8.8328 10.2892 9.17996 10.2892 9.17996L10.292 9.1881Z" stroke="#FFF057" stroke-width="1.5" stroke-miterlimit="10"/>
</svg>
