<svg width="14" height="18" viewBox="0 0 14 18" fill="none" xmlns="http://www.w3.org/2000/svg">
<path d="M11.5724 9.05321C11.5532 6.90245 13.3337 5.85577 13.4147 5.80738C12.4063 4.33753 10.8431 4.13607 10.2938 4.12031C8.98042 3.98188 7.70753 4.90588 7.03901 4.90588C6.37048 4.90588 5.32718 4.13382 4.21635 4.15633C2.78814 4.17884 1.45222 5.00492 0.718418 6.28907C-0.794202 8.9069 0.33351 12.7537 1.7831 14.8696C2.5079 15.9061 3.35537 17.0631 4.46395 17.0226C5.5489 16.9787 5.95406 16.3316 7.26297 16.3316C8.57188 16.3316 8.93991 17.0226 10.071 16.9967C11.2347 16.9787 11.9685 15.9557 12.6674 14.9101C13.5048 13.7227 13.8413 12.5523 13.8548 12.4926C13.8278 12.4836 11.5949 11.6305 11.5724 9.05321ZM9.43624 2.72812C10.0192 1.99882 10.4188 1.00616 10.3085 0C9.46437 0.0371402 8.40869 0.584114 7.79982 1.29766C7.26185 1.92679 6.78127 2.95659 6.90508 3.92561C7.85384 3.99651 8.82736 3.44729 9.43624 2.72924V2.72812Z" fill="#FFF057"/>
</svg>
