<svg width="17" height="17" viewBox="0 0 17 17" fill="none" xmlns="http://www.w3.org/2000/svg">
<path d="M16.3902 3.01136H13.5854V0.603478C13.5854 0.271565 13.311 0 12.9756 0C12.6402 0 12.3659 0.271565 12.3659 0.603478V3.01136H4.63415V0.603478C4.63415 0.271565 4.35976 0 4.02439 0C3.68902 0 3.41463 0.271565 3.41463 0.603478V3.01136H0.609756C0.27439 3.01136 0 3.28293 0 3.61484V16.3965C0 16.7284 0.27439 17 0.609756 17H16.3902C16.7256 17 17 16.7284 17 16.3965V3.61484C17 3.28293 16.7256 3.01136 16.3902 3.01136ZM3.41463 4.21832V4.64679C3.41463 4.9787 3.68902 5.25027 4.02439 5.25027C4.35976 5.25027 4.63415 4.9787 4.63415 4.64679V4.21832H12.3659V4.64679C12.3659 4.9787 12.6402 5.25027 12.9756 5.25027C13.311 5.25027 13.5854 4.9787 13.5854 4.64679V4.21832H15.7805V6.57792H1.21951V4.21832H3.41463ZM1.21951 15.793V7.78488H15.7805V15.793H1.21951Z" fill="#FFF057"/>
</svg>
