<svg width="72" height="51" viewBox="0 0 72 51" fill="none" xmlns="http://www.w3.org/2000/svg">
<path d="M57.0089 33.7294H28.8284C26.8872 33.7294 25.1512 32.5212 24.4769 30.701L17.1707 10.979C16.0479 7.94818 18.2901 4.72653 21.5222 4.72653H63.267C66.4062 4.72653 68.6396 7.77839 67.6901 10.7705L61.4321 30.4924C60.8205 32.4199 59.0311 33.7294 57.0089 33.7294Z" stroke="#FFF057" stroke-width="2.32024"/>
<path d="M32.3486 50.0059C35.8808 50.0059 38.7441 47.1425 38.7441 43.6103C38.7441 40.0782 35.8808 37.2148 32.3486 37.2148C28.8165 37.2148 25.9531 40.0782 25.9531 43.6103C25.9531 47.1425 28.8165 50.0059 32.3486 50.0059Z" stroke="#FFF057" stroke-width="1.74018" stroke-miterlimit="10"/>
<path d="M53.2295 50.0059C56.7616 50.0059 59.625 47.1425 59.625 43.6103C59.625 40.0782 56.7616 37.2148 53.2295 37.2148C49.6974 37.2148 46.834 40.0782 46.834 43.6103C46.834 47.1425 49.6974 50.0059 53.2295 50.0059Z" stroke="#FFF057" stroke-width="1.74018" stroke-miterlimit="10"/>
<path d="M17.8275 12.8433L14.7239 4.92579C13.8529 2.70388 11.7099 1.24219 9.32338 1.24219H1.58594" stroke="#FFF057" stroke-width="2.32024" stroke-linecap="round"/>
</svg>
