<svg width="22" height="23" viewBox="0 0 22 23" fill="none" xmlns="http://www.w3.org/2000/svg">
<path d="M12.9234 15.3597C12.2456 15.3597 11.5753 15.2327 10.9504 14.9761C10.3255 14.7221 9.75604 14.346 9.27728 13.8727L8.84389 13.4443C8.36513 12.971 7.98465 12.4106 7.72511 11.7929C7.46558 11.1752 7.33203 10.5126 7.33203 9.84509C7.33203 9.17756 7.46558 8.51501 7.72511 7.89729C7.98465 7.27957 8.36513 6.71914 8.84389 6.24589L12.7797 2.35527C13.2585 1.88202 13.8254 1.5084 14.4503 1.25185C15.0752 0.995293 15.7455 0.863281 16.4208 0.863281C17.0961 0.863281 17.7663 0.995293 18.3912 1.25185C19.0161 1.5084 19.5831 1.88202 20.0618 2.35527L20.4952 2.78368C21.4603 3.74015 21.9995 5.03287 21.9995 6.38288C21.9995 7.7329 21.4578 9.02811 20.4952 9.98209L16.5594 13.8727C16.0832 14.346 15.5162 14.7221 14.8913 14.9761C14.2664 15.2302 13.5987 15.3622 12.9209 15.3597H12.9234ZM13.9237 3.41884L9.98786 7.30946C9.3176 7.97201 8.94216 8.87119 8.94216 9.80773C8.94216 10.7443 9.3176 11.6434 9.98786 12.306L10.4288 12.7419C11.0991 13.4044 12.0087 13.7756 12.9561 13.7756C13.9036 13.7756 14.8132 13.4044 15.4834 12.7419L19.4193 8.85126C20.087 8.18622 20.4625 7.28704 20.4625 6.34801C20.4625 5.40898 20.087 4.50981 19.4193 3.84476L18.9859 3.41635C18.3131 2.75629 17.4035 2.38516 16.4536 2.38516C15.5036 2.38516 14.594 2.75629 13.9212 3.41635L13.9237 3.41884Z" fill="#FFF057"/>
<path d="M5.57622 22.6197C4.90093 22.6197 4.23067 22.4877 3.60577 22.2311C2.98087 21.9746 2.41393 21.5984 1.93769 21.1252L1.5043 20.6968C0.539228 19.7403 0 18.4476 0 17.0976C0 15.7476 0.541748 14.4524 1.5043 13.4984L5.44016 9.60776C5.91891 9.13451 6.48586 8.7584 7.11076 8.50185C7.73566 8.24529 8.40591 8.11328 9.08121 8.11328C9.7565 8.11328 10.4268 8.24529 11.0517 8.50185C11.6766 8.7584 12.2435 9.13451 12.7223 9.60776L13.1557 10.0362C13.6344 10.5094 14.0149 11.0699 14.2744 11.6876C14.534 12.3053 14.6675 12.9678 14.6675 13.6354C14.6675 14.3029 14.534 14.9655 14.2744 15.5832C14.0149 16.2009 13.6344 16.7613 13.1557 17.2346L9.21979 21.1252C8.74104 21.6009 8.17409 21.977 7.54919 22.2336C6.92429 22.4902 6.25152 22.6222 5.57622 22.6197ZM9.11144 9.63765C8.16401 9.63765 7.25438 10.0113 6.58413 10.6738L2.64827 14.5644C1.98053 15.2295 1.60509 16.1287 1.60509 17.0677C1.60509 18.0067 1.98053 18.9059 2.64827 19.5709L3.08166 19.9994C3.75444 20.6594 4.66407 21.0305 5.61402 21.0305C6.56397 21.0305 7.4736 20.6594 8.14638 19.9994L12.0822 16.1087C12.7525 15.4462 13.1279 14.547 13.1279 13.6105C13.1279 12.6739 12.7525 11.7748 12.0822 11.1122L11.6413 10.6763C11.3087 10.3475 10.9156 10.0885 10.4822 9.90915C10.0488 9.7323 9.58264 9.64014 9.11396 9.64014L9.11144 9.63765Z" fill="#FFF057"/>
</svg>
