<svg width="14" height="16" viewBox="0 0 14 16" fill="none" xmlns="http://www.w3.org/2000/svg">
<path d="M0.469716 0L8.32139 7.85365L0.470705 15.7073C0.18492 15.5877 0 15.3078 0 14.9983V0.709024C0 0.400495 0.18492 0.120643 0.469716 0ZM8.86626 8.39852L10.6413 10.1736L2.20816 15.0566L8.86626 8.39852ZM11.3325 5.93227L13.4972 7.18616C13.865 7.39976 13.9906 7.87145 13.777 8.2403C13.7098 8.356 13.6129 8.45291 13.4972 8.52015L11.3325 9.77405L9.41212 7.85365L11.3335 5.93326L11.3325 5.93227ZM2.20816 0.65068L10.6413 5.53276L8.86527 7.30878L2.20816 0.65068Z" fill="#FFF057"/>
</svg>
