<svg width="25" height="25" viewBox="0 0 25 25" fill="none" xmlns="http://www.w3.org/2000/svg">
<path d="M17.7024 0H6.60358C2.95967 0 0 2.95968 0 6.60359V17.7024C0 21.3463 2.95967 24.306 6.60358 24.306H17.7024C21.3384 24.306 24.306 21.3463 24.306 17.7024V6.60359C24.306 2.96764 21.3463 0 17.7024 0ZM22.5556 17.6944C22.5556 20.3757 20.3757 22.5556 17.7024 22.5556H6.60358C3.92237 22.5556 1.7424 20.3757 1.7424 17.6944V6.59564C1.7424 3.91442 3.92237 1.74239 6.60358 1.74239H17.7024C20.3836 1.74239 22.5556 3.92237 22.5556 6.59564V17.6944Z" fill="#FFF057"/>
<path d="M12.1576 6.12695C8.8319 6.12695 6.13477 8.83204 6.13477 12.1497C6.13477 15.4675 8.83986 18.1725 12.1576 18.1725C15.4753 18.1725 18.1804 15.4675 18.1804 12.1497C18.1804 8.83204 15.4753 6.12695 12.1576 6.12695ZM12.1576 16.4301C9.79459 16.4301 7.87716 14.5127 7.87716 12.1497C7.87716 9.78678 9.79459 7.86935 12.1576 7.86935C14.5205 7.86935 16.438 9.78678 16.438 12.1497C16.438 14.5127 14.5205 16.4301 12.1576 16.4301Z" fill="#FFF057"/>
<path d="M19.2069 7.36887C20.3977 7.36887 21.363 6.40354 21.363 5.21275C21.363 4.02197 20.3977 3.05664 19.2069 3.05664C18.0161 3.05664 17.0508 4.02197 17.0508 5.21275C17.0508 6.40354 18.0161 7.36887 19.2069 7.36887Z" fill="#FFF057"/>
</svg>
