<svg width="20" height="20" viewBox="0 0 20 20" fill="none" xmlns="http://www.w3.org/2000/svg">
<path d="M19.6243 17.7684L15.3492 13.4957C15.2593 13.4058 15.1534 13.3371 15.0423 13.2736C14.9841 13.1626 14.9153 13.0621 14.8201 12.9669L12.963 11.1108C14.8624 8.34518 14.5873 4.52722 12.127 2.07357C9.35979 -0.692071 4.85185 -0.692071 2.07936 2.07886C-0.693122 4.84979 -0.693122 9.36048 2.07936 12.1261C3.46561 13.5116 5.28571 14.2043 7.10582 14.2043C8.51323 14.2043 9.91534 13.7866 11.1217 12.9616L12.9788 14.8177C13.0688 14.9076 13.1746 14.9764 13.2804 15.0398C13.3386 15.1509 13.4074 15.2513 13.5026 15.3465L17.7778 19.6193C18.0317 19.8731 18.3651 20 18.6984 20C19.0317 20 19.3651 19.8731 19.619 19.6193C20.127 19.1116 20.127 18.2814 19.619 17.7737L19.6243 17.7684ZM3.92593 10.2859C2.16931 8.53026 2.16931 5.68001 3.92593 3.92438C4.80423 3.04657 5.95767 2.60766 7.10582 2.60766C8.25397 2.60766 9.4127 3.04657 10.2857 3.92438C12.0423 5.68001 12.0423 8.53026 10.2857 10.2859C8.5291 12.0415 5.67725 12.0415 3.92063 10.2859H3.92593Z" fill="#FFF057"/>
</svg>
