<svg width="21" height="24" viewBox="0 0 21 24" fill="none" xmlns="http://www.w3.org/2000/svg">
<path d="M17.1345 16.0077C16.1022 16.0077 15.1715 16.43 14.4911 17.1104L7.47618 13.3019C7.57784 12.9656 7.64823 12.6137 7.64823 12.2461C7.64823 11.8081 7.55438 11.3937 7.41361 10.9948L14.4911 7.08459C15.1637 7.76497 16.1022 8.18727 17.1266 8.18727C19.1756 8.18727 20.8492 6.51369 20.8492 4.46473C20.8492 2.41577 19.1756 0.742188 17.1266 0.742188C15.0777 0.742188 13.4041 2.41577 13.4041 4.46473C13.4041 4.88704 13.4901 5.27806 13.6152 5.66126L6.50644 9.58714C5.83388 8.93022 4.91888 8.52355 3.91004 8.52355C1.86108 8.52355 0.1875 10.1971 0.1875 12.2461C0.1875 14.2951 1.86108 15.9686 3.91004 15.9686C4.98927 15.9686 5.95901 15.4994 6.63939 14.7565L13.6074 18.5416C13.4823 18.917 13.3963 19.3158 13.3963 19.7303C13.3963 21.7792 15.0699 23.4528 17.1188 23.4528C19.1678 23.4528 20.8414 21.7792 20.8414 19.7303C20.8414 17.6813 19.1678 16.0077 17.1188 16.0077H17.1345ZM17.1345 2.40795C18.2684 2.40795 19.1834 3.33076 19.1834 4.45691C19.1834 5.58306 18.2606 6.50587 17.1345 6.50587C16.0083 6.50587 15.0855 5.58306 15.0855 4.45691C15.0855 3.33076 16.0083 2.40795 17.1345 2.40795ZM3.92568 14.2951C2.79172 14.2951 1.87672 13.3722 1.87672 12.2461C1.87672 11.1199 2.79954 10.1971 3.92568 10.1971C5.05183 10.1971 5.97465 11.1199 5.97465 12.2461C5.97465 13.3722 5.05183 14.2951 3.92568 14.2951ZM17.1345 21.7871C16.0005 21.7871 15.0855 20.8643 15.0855 19.7381C15.0855 18.612 16.0083 17.6891 17.1345 17.6891C18.2606 17.6891 19.1834 18.612 19.1834 19.7381C19.1834 20.8643 18.2606 21.7871 17.1345 21.7871Z" fill="#FFF057"/>
</svg>
