<?xml version="1.0" standalone="no"?>
<!DOCTYPE svg PUBLIC "-//W3C//DTD SVG 20010904//EN"
 "http://www.w3.org/TR/2001/REC-SVG-20010904/DTD/svg10.dtd">
<svg version="1.0" xmlns="http://www.w3.org/2000/svg"
 width="700.000000pt" height="700.000000pt" viewBox="0 0 700.000000 700.000000"
 preserveAspectRatio="xMidYMid meet">
<metadata>
Created by potrace 1.14, written by Peter Selinger 2001-2017
</metadata>
<g transform="translate(0.000000,700.000000) scale(0.100000,-0.100000)"
fill="#000000" stroke="none">
<path d="M0 3500 l0 -3500 3500 0 3500 0 0 3500 0 3500 -3500 0 -3500 0 0
-3500z m2180 921 l0 -169 -80 -27 -80 -27 0 -688 0 -689 -82 -26 c-46 -14
-327 -105 -624 -201 -298 -96 -546 -174 -553 -174 -8 0 -10 219 -9 857 l3 856
705 228 c388 125 708 228 713 228 4 1 7 -75 7 -168z m1360 -1 l0 -169 -85 -27
-85 -26 0 -689 0 -688 -232 -75 c-128 -41 -408 -131 -623 -200 -214 -69 -393
-126 -397 -126 -4 0 -8 386 -8 858 l0 857 198 63 c108 35 424 137 702 227 278
90 511 164 518 164 9 1 12 -39 12 -169z m1350 1 l0 -169 -80 -27 -80 -27 0
-687 0 -687 -627 -203 c-346 -111 -631 -201 -636 -201 -4 0 -6 386 -5 857 l3
857 700 227 c385 125 706 227 713 228 9 1 12 -39 12 -168z m1350 -691 c0 -473
-2 -860 -4 -860 -3 0 -319 -101 -703 -225 -384 -124 -704 -225 -710 -225 -11
0 -13 171 -11 856 l3 857 705 228 c388 125 708 228 713 228 4 1 7 -386 7 -859z"/>
<path d="M1370 4014 c-129 -42 -243 -80 -252 -85 -17 -9 -18 -45 -18 -544 0
-430 3 -535 13 -535 7 0 58 15 112 33 l100 34 6 144 c4 79 7 154 8 167 2 35
53 82 90 82 30 0 34 -6 96 -130 35 -71 73 -134 84 -140 31 -16 64 -12 166 20
91 30 95 32 84 53 -7 12 -47 88 -91 169 l-79 147 46 48 c91 94 143 242 132
375 -7 85 -33 144 -81 186 -83 73 -121 71 -416 -24z m243 -206 c38 -45 13
-158 -44 -199 -33 -23 -224 -90 -233 -81 -12 12 -6 231 6 239 32 20 205 72
228 67 14 -3 33 -14 43 -26z"/>
<path d="M2812 4070 c-157 -56 -299 -197 -387 -381 -95 -201 -104 -434 -23
-593 32 -62 103 -131 161 -156 155 -67 334 -14 492 145 247 249 316 652 149
878 -38 52 -107 101 -164 117 -58 16 -169 11 -228 -10z m148 -307 c67 -39 103
-150 81 -255 -34 -164 -155 -288 -281 -288 -117 0 -191 127 -160 277 43 206
227 342 360 266z"/>
<path d="M4521 4157 l-125 -42 -110 -423 c-60 -232 -113 -419 -116 -415 -4 5
-54 157 -110 340 -57 183 -107 337 -111 344 -5 8 -43 -1 -133 -31 -69 -23
-126 -43 -126 -45 0 -6 333 -960 336 -964 2 -2 67 16 145 40 107 33 144 49
150 64 5 11 81 274 169 585 88 311 163 571 165 578 6 16 9 17 -134 -31z"/>
<path d="M5480 4030 c-102 -32 -214 -69 -250 -82 l-65 -23 -3 -538 c-2 -426 0
-537 10 -537 7 0 61 16 120 36 l108 36 0 157 c0 148 1 160 23 192 24 36 44 44
82 35 18 -5 36 -32 79 -120 62 -130 83 -156 126 -156 26 0 220 56 220 64 0 1
-40 76 -89 166 l-89 164 43 50 c149 170 180 423 67 548 -78 86 -131 88 -382 8z
m180 -210 c43 -23 44 -119 1 -179 -28 -39 -41 -45 -163 -87 l-98 -33 0 123 0
124 58 20 c100 36 116 40 150 41 18 1 42 -4 52 -9z"/>
</g>
</svg>
