<svg width="139" height="37" viewBox="0 0 139 37" fill="none" xmlns="http://www.w3.org/2000/svg">
<rect x="1.21779" y="0.819349" width="136.012" height="34.4127" rx="4.09675" stroke="#FFF057" stroke-width="1.6387"/>
<path d="M24.5827 14.6483H20.5629V12.5754H30.9638V14.6483H26.9981V25.1573H24.5827V14.6483ZM32.1825 12.5754H38.9601C40.1859 12.5754 41.1292 12.8458 41.7901 13.3865C42.4511 13.9273 42.7816 14.7505 42.7816 15.8561C42.7816 16.3848 42.6554 16.8775 42.403 17.3342C42.1627 17.7788 41.7962 18.1513 41.3035 18.4518C40.967 18.6681 40.5764 18.8243 40.1318 18.9204C40.5404 18.9805 40.8768 19.0766 41.1412 19.2088C41.5258 19.3771 41.8202 19.6535 42.0245 20.038C42.2288 20.4105 42.355 20.9333 42.403 21.6062L42.4391 22.0028C42.4511 22.135 42.4631 22.2612 42.4751 22.3814C42.5472 23.2226 42.6073 23.8354 42.6554 24.22C42.7155 24.5925 42.8116 24.917 42.9438 25.1934H40.4022C40.306 24.9771 40.2399 24.7127 40.2039 24.4002C40.1678 24.0878 40.1318 23.6492 40.0957 23.0844C40.0837 22.856 40.0657 22.6337 40.0417 22.4174C40.0296 22.2011 40.0056 21.9547 39.9696 21.6784C39.9335 21.3058 39.8554 20.9934 39.7352 20.741C39.615 20.4887 39.4228 20.2964 39.1584 20.1642C38.894 20.02 38.5455 19.9479 38.1129 19.9479H34.6159V25.1934H32.1825V12.5754ZM34.6159 17.947H38.2391C38.9 17.947 39.4168 17.8088 39.7893 17.5324C40.1618 17.244 40.3481 16.8174 40.3481 16.2526C40.3481 15.6998 40.1799 15.2913 39.8434 15.0269C39.5189 14.7625 39.0502 14.6303 38.4374 14.6303H34.6159V17.947ZM48.22 12.5754H51.3925L56.1513 25.1934H53.6277L52.4921 22.111H47.1024L46.0208 25.1934H43.5333L48.22 12.5754ZM51.753 20.0921L49.7341 14.5943L47.8054 20.0921H51.753ZM62.4273 25.3736C61.2256 25.3736 60.1621 25.1152 59.2368 24.5985C58.3114 24.0698 57.5904 23.3187 57.0737 22.3453C56.569 21.3599 56.3166 20.2002 56.3166 18.8663C56.3166 17.5685 56.575 16.4329 57.0917 15.4595C57.6084 14.4861 58.3235 13.735 59.2368 13.2063C60.1501 12.6775 61.1955 12.4132 62.3732 12.4132C63.3947 12.4132 64.308 12.5934 65.1131 12.9539C65.9183 13.3024 66.5672 13.8131 67.0599 14.4861C67.5646 15.147 67.8711 15.9222 67.9792 16.8114L65.5818 17.226C65.4256 16.2887 65.0651 15.5977 64.5003 15.1531C63.9475 14.6964 63.2445 14.4681 62.3912 14.4681C61.7904 14.4681 61.2196 14.6243 60.6788 14.9367C60.1501 15.2372 59.7174 15.7179 59.381 16.3788C59.0565 17.0397 58.8943 17.8629 58.8943 18.8483C58.8943 19.7977 59.0445 20.6088 59.3449 21.2818C59.6574 21.9427 60.078 22.4474 60.6067 22.7959C61.1475 23.1324 61.7543 23.3007 62.4273 23.3007C63.2685 23.3007 63.9715 23.0904 64.5363 22.6698C65.1011 22.2492 65.4736 21.5762 65.6539 20.6509L68.0513 21.0294C67.8831 21.9187 67.5466 22.6938 67.0419 23.3547C66.5492 24.0037 65.9063 24.5024 65.1131 24.8509C64.32 25.1994 63.4247 25.3736 62.4273 25.3736ZM69.3879 12.5754H71.8213V18.4518L77.3192 12.5754H80.4737L75.3003 17.9831L80.5097 25.1934H77.5896L73.6239 19.6054L71.8213 21.2638V25.1934H69.3879V12.5754ZM81.5785 12.5754H84.0119V23.1204H90.5192V25.1934H81.5785V12.5754ZM92.1847 12.5754H94.6182V25.1934H92.1847V12.5754ZM101.903 25.3736C100.881 25.3736 99.9858 25.2294 99.2167 24.941C98.4596 24.6526 97.8348 24.22 97.3421 23.6432C96.8614 23.0543 96.5369 22.3393 96.3687 21.4981L98.7661 21.0114C98.9103 21.8045 99.2468 22.3874 99.7755 22.7599C100.304 23.1204 100.977 23.3007 101.794 23.3007C102.275 23.3007 102.702 23.2466 103.074 23.1384C103.459 23.0183 103.759 22.838 103.976 22.5977C104.204 22.3453 104.318 22.0329 104.318 21.6603C104.318 21.3719 104.252 21.1256 104.12 20.9213C104 20.717 103.807 20.5487 103.543 20.4166C103.279 20.2844 102.924 20.1582 102.479 20.038C102.395 20.026 102.335 20.02 102.299 20.02C102.275 20.008 102.221 19.9899 102.137 19.9659L100.136 19.5693C99.1146 19.3651 98.3034 18.9625 97.7026 18.3616C97.1137 17.7488 96.8193 16.9556 96.8193 15.9822C96.8193 14.8646 97.2579 13.9934 98.1352 13.3685C99.0124 12.7316 100.202 12.4132 101.704 12.4132C102.666 12.4132 103.489 12.5513 104.174 12.8277C104.859 13.1041 105.412 13.5127 105.832 14.0535C106.253 14.5822 106.547 15.2252 106.715 15.9822L104.336 16.4509C104.192 15.7539 103.903 15.2492 103.471 14.9367C103.038 14.6123 102.443 14.4501 101.686 14.4501C101.157 14.4501 100.719 14.5101 100.37 14.6303C100.034 14.7505 99.7815 14.9187 99.6133 15.135C99.4571 15.3393 99.379 15.5917 99.379 15.8921C99.379 16.3127 99.5292 16.6372 99.8296 16.8655C100.13 17.0818 100.647 17.2681 101.38 17.4243L103.128 17.8028C103.969 17.9831 104.666 18.2354 105.219 18.5599C105.772 18.8724 106.187 19.2809 106.463 19.7857C106.751 20.2784 106.896 20.8852 106.896 21.6062C106.896 22.3513 106.679 23.0123 106.247 23.5891C105.814 24.1539 105.219 24.5925 104.462 24.9049C103.705 25.2174 102.852 25.3736 101.903 25.3736ZM111.492 14.6483H107.473V12.5754H117.874V14.6483H113.908V25.1573H111.492V14.6483Z" fill="#FFF057"/>
</svg>
